<?xml version="1.0" encoding="UTF-8"?>
<svg width="17px" height="18px" viewBox="0 0 17 18" version="1.1" xmlns="http://www.w3.org/2000/svg" xmlns:xlink="http://www.w3.org/1999/xlink">
    <title>70D1152A-93E6-426E-A7E5-4DB226B343FA</title>
    <defs>
        <polygon id="path-1" points="0.0494057275 0.129717761 10.865589 0.129717761 10.865589 17.9999993 0.0494057275 17.9999993"></polygon>
    </defs>
    <g id="Page-1" stroke="none" stroke-width="1" fill="none" fill-rule="evenodd">
        <g id="07-Roundtable-Sub-Topic-v1-downvoted" transform="translate(-1107.000000, -819.000000)">
            <g id="thumb-down-icon-active" transform="translate(1107.000000, 819.000000)">
                <g transform="translate(8.500000, 9.000000) scale(1, -1) translate(-8.500000, -9.000000) ">
                    <g id="Group-3" transform="translate(6.000000, 0.000000)">
                        <mask id="mask-2" fill="white">
                            <use xlink:href="#path-1"></use>
                        </mask>
                        <g id="Clip-2"></g>
                        <path d="M10.8016233,8.10764602 C10.5655,7.26849558 9.93367808,7.16415929 9.15584247,7.0759115 C8.6575274,7.01936283 6.08021233,6.80161062 5.12486986,6.80161062 C5.41282877,6.03143363 5.61037671,5.49318584 5.81470548,4.95812389 C6.28258219,3.73332743 6.40358219,2.49419469 5.93495205,1.23976991 C5.69219863,0.589699115 5.34939041,0.00430088496 4.56808904,0.153079646 C3.78588356,0.302017699 3.61289726,0.967858407 3.67588356,1.67097345 C3.76478767,2.66575221 3.32629452,3.33047788 2.74118493,4.05828319 C1.61225342,5.46276106 0.310636986,6.87615929 0.16989726,8.8099646 C-0.00655479452,11.2342301 0.0666780822,13.6795221 0.0541712329,16.1157345 C0.0541712329,17.2970442 4.10623973,19.1201416 9.06513014,17.0812035 C9.83482877,16.7366549 9.92403425,16.3780885 9.93232192,15.716708 C9.9365411,15.3952566 9.75677397,15.0714159 9.6604863,14.7486903 C10.208226,14.0890619 10.6298425,13.5794867 9.95823973,12.4724071 C10.2511712,12.102531 10.6940342,11.9529558 10.6902671,11.0255575 C10.6310479,10.171115 10.3024041,10.0726726 10.0717055,9.57153982 C10.6467192,9.15323894 11.0223767,8.89168142 10.8016233,8.10764602" id="Fill-1" fill="#0AB88A" mask="url(#mask-2)"></path>
                    </g>
                    <path d="M3.9118137,8.00424945 C3.00123648,8.00699361 2.09031707,7.99022375 1.18025315,8.00912795 C0.222111017,8.02909933 0.00225161745,8.25884642 0.00584465043,9.13194632 C0.0102931675,10.2710772 0.00687123129,11.410208 0.00789781214,12.5491865 C0.00875329619,13.7390843 0.0292849133,14.9291345 0.000540649356,16.1182701 C-0.0145158698,16.7395171 0.284390255,17.0018892 0.962275813,16.9950288 C1.92965717,16.9851194 2.89789401,16.9747525 3.86476208,16.9991451 C4.6731945,17.0195738 4.99708076,16.6736573 4.99536979,15.986398 C4.9898947,13.6538629 4.99194786,11.3211753 5,8.98864024 C5.00221367,8.32729794 4.65420276,8.00196265 3.9118137,8.00424945" id="Fill-4" fill="#0AB88A"></path>
                </g>
            </g>
        </g>
    </g>
</svg>